<?xml version="1.0" encoding="UTF-8" standalone="no"?>
<!DOCTYPE svg PUBLIC "-//W3C//DTD SVG 1.1//EN" "http://www.w3.org/Graphics/SVG/1.1/DTD/svg11.dtd">
<svg width="100%" height="100%" viewBox="0 0 800 800" version="1.1" xmlns="http://www.w3.org/2000/svg" xmlns:xlink="http://www.w3.org/1999/xlink" xml:space="preserve" xmlns:serif="http://www.serif.com/" style="fill-rule:evenodd;clip-rule:evenodd;stroke-linejoin:round;stroke-miterlimit:2;">
    <g id="Group_65" transform="matrix(10.5535,0,0,10.5535,-8575.04,-4057.28)">
        <path id="Path_57" d="M833.068,460.252C833.068,460.252 833.068,460.252 833.067,460.252C832.244,460.252 831.567,459.575 831.567,458.752C831.567,458.354 831.726,457.972 832.007,457.691L865.564,424.131C866.536,423.151 866.536,421.547 865.564,420.567L832.007,387.009C831.726,386.728 831.568,386.346 831.568,385.949C831.568,385.126 832.245,384.448 833.068,384.448C833.466,384.448 833.848,384.607 834.129,384.888L867.685,418.446C869.821,420.59 869.821,424.109 867.685,426.253L834.128,459.813C833.847,460.094 833.465,460.252 833.068,460.252Z" style="fill-rule:nonzero;"/>
    </g>
</svg>
